<mxfile host="www.draw.io" modified="2019-10-31T07:36:03.789Z" agent="Mozilla/5.0 (Windows NT 10.0; Win64; x64) AppleWebKit/537.36 (KHTML, like Gecko) Chrome/72.0.3626.121 Safari/537.36" etag="JUrdC6KzfmV0qji0z7Q_" version="12.1.9" type="github" pages="2">
  <diagram name="数据准备" id="efa7a0a1-bf9b-a30e-e6df-94a7791c09e9">
    <mxGraphModel dx="853" dy="472" grid="1" gridSize="10" guides="1" tooltips="1" connect="1" arrows="1" fold="1" page="1" pageScale="1" pageWidth="826" pageHeight="1169" background="#ffffff" math="0" shadow="0">
      <root>
        <mxCell id="0"/>
        <mxCell id="1" parent="0"/>
        <mxCell id="21" value="&lt;p style=&quot;margin: 0px; margin-top: 4px; text-align: center; text-decoration: underline;&quot;&gt;&lt;strong&gt;Calendar&lt;/strong&gt;&lt;/p&gt;&lt;hr /&gt;&lt;p style=&quot;margin: 0px; margin-left: 8px;&quot;&gt;IdCalendar&lt;/p&gt;&lt;p style=&quot;margin: 0px; margin-left: 8px;&quot;&gt;IdCompany&lt;/p&gt;&lt;p style=&quot;margin: 0px; margin-left: 8px;&quot;&gt;Name&lt;/p&gt;&lt;p style=&quot;margin: 0px; margin-left: 8px;&quot;&gt;Description&lt;/p&gt;&lt;p style=&quot;margin: 0px; margin-left: 8px;&quot;&gt;ValidUntil&lt;/p&gt;&lt;p style=&quot;margin: 0px; margin-left: 8px;&quot;&gt;CreatedAt&lt;/p&gt;&lt;p style=&quot;margin: 0px; margin-left: 8px;&quot;&gt;UpdatedAt&lt;/p&gt;&lt;p style=&quot;margin: 0px; margin-left: 8px;&quot;&gt;Enabled&lt;/p&gt;" style="verticalAlign=top;align=left;overflow=fill;fontSize=12;fontFamily=Helvetica;html=1;strokeColor=#003366;shadow=1;fillColor=#D4E1F5;fontColor=#003366" parent="1" vertex="1">
          <mxGeometry x="490" y="249.99999999999983" width="160" height="160" as="geometry"/>
        </mxCell>
        <mxCell id="25" value="&lt;p style=&quot;margin: 0px ; margin-top: 4px ; text-align: center ; text-decoration: underline&quot;&gt;&lt;b&gt;Dimasion&lt;/b&gt;&lt;/p&gt;&lt;hr&gt;&lt;p style=&quot;margin: 0px ; margin-left: 8px&quot;&gt;&lt;b&gt;dim_name&lt;/b&gt;&lt;/p&gt;&lt;p style=&quot;margin: 0px ; margin-left: 8px&quot;&gt;dim_id&lt;/p&gt;&lt;p style=&quot;margin: 0px ; margin-left: 8px&quot;&gt;Name&lt;/p&gt;&lt;p style=&quot;margin: 0px ; margin-left: 8px&quot;&gt;Description&lt;/p&gt;&lt;p style=&quot;margin: 0px ; margin-left: 8px&quot;&gt;Date&lt;/p&gt;&lt;p style=&quot;margin: 0px ; margin-left: 8px&quot;&gt;CreatedAt&lt;/p&gt;&lt;p style=&quot;margin: 0px ; margin-left: 8px&quot;&gt;UpdatedAt&lt;/p&gt;&lt;p style=&quot;margin: 0px ; margin-left: 8px&quot;&gt;Enabled&lt;/p&gt;" style="verticalAlign=top;align=left;overflow=fill;fontSize=12;fontFamily=Helvetica;html=1;strokeColor=#003366;shadow=1;fillColor=#D4E1F5;fontColor=#003366" parent="1" vertex="1">
          <mxGeometry x="210.00000000000006" y="110.14000000000037" width="160" height="160" as="geometry"/>
        </mxCell>
        <mxCell id="26" value="&lt;p style=&quot;margin: 0px; margin-top: 4px; text-align: center; text-decoration: underline;&quot;&gt;&lt;strong&gt;TimeSheet&lt;/strong&gt;&lt;/p&gt;&lt;hr /&gt;&lt;p style=&quot;margin: 0px; margin-left: 8px;&quot;&gt;IdTimeSheet&lt;/p&gt;&lt;p style=&quot;margin: 0px; margin-left: 8px;&quot;&gt;Name&lt;/p&gt;&lt;p style=&quot;margin: 0px; margin-left: 8px;&quot;&gt;Description&lt;/p&gt;&lt;p style=&quot;margin: 0px; margin-left: 8px;&quot;&gt;IdProject&lt;/p&gt;&lt;p style=&quot;margin: 0px; margin-left: 8px;&quot;&gt;CreatedAt&lt;/p&gt;&lt;p style=&quot;margin: 0px; margin-left: 8px;&quot;&gt;UpdatedAt&lt;/p&gt;&lt;p style=&quot;margin: 0px; margin-left: 8px;&quot;&gt;Enabled&lt;/p&gt;&lt;p style=&quot;margin: 0px; margin-left: 8px;&quot;&gt;IdUser&lt;/p&gt;" style="verticalAlign=top;align=left;overflow=fill;fontSize=12;fontFamily=Helvetica;html=1;strokeColor=#003366;shadow=1;fillColor=#D4E1F5;fontColor=#003366" parent="1" vertex="1">
          <mxGeometry x="1170" y="680" width="160" height="170" as="geometry"/>
        </mxCell>
        <mxCell id="27" value="&lt;p style=&quot;margin: 0px; margin-top: 4px; text-align: center; text-decoration: underline;&quot;&gt;&lt;strong&gt;TimeSheetHour&lt;/strong&gt;&lt;/p&gt;&lt;hr /&gt;&lt;p style=&quot;margin: 0px; margin-left: 8px;&quot;&gt;IdTimeSheetHour&lt;br /&gt;IdTimeSheet&lt;/p&gt;&lt;p style=&quot;margin: 0px; margin-left: 8px;&quot;&gt;IdUser&lt;/p&gt;&lt;p style=&quot;margin: 0px; margin-left: 8px;&quot;&gt;IdTimeCategory&lt;/p&gt;&lt;p style=&quot;margin: 0px; margin-left: 8px;&quot;&gt;IdTask&lt;/p&gt;&lt;p style=&quot;margin: 0px; margin-left: 8px;&quot;&gt;Quantity&lt;/p&gt;&lt;p style=&quot;margin: 0px; margin-left: 8px;&quot;&gt;Description&lt;/p&gt;&lt;p style=&quot;margin: 0px; margin-left: 8px;&quot;&gt;IdProjectManager&lt;/p&gt;&lt;p style=&quot;margin: 0px; margin-left: 8px;&quot;&gt;CreatedAt&lt;/p&gt;&lt;p style=&quot;margin: 0px; margin-left: 8px;&quot;&gt;UpdatedAt&lt;/p&gt;&lt;p style=&quot;margin: 0px; margin-left: 8px;&quot;&gt;Enabled&lt;/p&gt;" style="verticalAlign=top;align=left;overflow=fill;fontSize=12;fontFamily=Helvetica;html=1;strokeColor=#003366;shadow=1;fillColor=#D4E1F5;fontColor=#003366" parent="1" vertex="1">
          <mxGeometry x="1170" y="419.99999999999994" width="160" height="200" as="geometry"/>
        </mxCell>
        <mxCell id="30" value="&lt;p style=&quot;margin: 0px; margin-top: 4px; text-align: center; text-decoration: underline;&quot;&gt;&lt;strong&gt;TimeCategory&lt;/strong&gt;&lt;/p&gt;&lt;hr /&gt;&lt;p style=&quot;margin: 0px; margin-left: 8px;&quot;&gt;IdTimeCategory&lt;/p&gt;&lt;p style=&quot;margin: 0px; margin-left: 8px;&quot;&gt;Name&lt;/p&gt;&lt;p style=&quot;margin: 0px; margin-left: 8px;&quot;&gt;Description&lt;/p&gt;&lt;p style=&quot;margin: 0px; margin-left: 8px;&quot;&gt;CreatedAt&lt;/p&gt;&lt;p style=&quot;margin: 0px; margin-left: 8px;&quot;&gt;UpdatedAt&lt;/p&gt;&lt;p style=&quot;margin: 0px; margin-left: 8px;&quot;&gt;Enabled&lt;/p&gt;" style="verticalAlign=top;align=left;overflow=fill;fontSize=12;fontFamily=Helvetica;html=1;strokeColor=#003366;shadow=1;fillColor=#D4E1F5;fontColor=#003366" parent="1" vertex="1">
          <mxGeometry x="1420.0000000000002" y="455.0000000000001" width="160" height="130" as="geometry"/>
        </mxCell>
        <mxCell id="31" value="&lt;p style=&quot;margin: 0px; margin-top: 4px; text-align: center; text-decoration: underline;&quot;&gt;&lt;strong&gt;TimeSheetCostCenter&lt;/strong&gt;&lt;/p&gt;&lt;hr /&gt;&lt;p style=&quot;margin: 0px; margin-left: 8px;&quot;&gt;IdTimeSheetCostCenter&lt;/p&gt;&lt;p style=&quot;margin: 0px; margin-left: 8px;&quot;&gt;IdTimeSheet&lt;/p&gt;&lt;p style=&quot;margin: 0px; margin-left: 8px;&quot;&gt;IdCostCenter&lt;/p&gt;" style="verticalAlign=top;align=left;overflow=fill;fontSize=12;fontFamily=Helvetica;html=1;strokeColor=#003366;shadow=1;fillColor=#D4E1F5;fontColor=#003366" parent="1" vertex="1">
          <mxGeometry x="1170" y="912.4999999999997" width="160" height="95" as="geometry"/>
        </mxCell>
        <mxCell id="35" value="&lt;p style=&quot;margin: 0px; margin-top: 4px; text-align: center; text-decoration: underline;&quot;&gt;&lt;strong&gt;Tasks&lt;/strong&gt;&lt;/p&gt;&lt;hr /&gt;&lt;p style=&quot;margin: 0px; margin-left: 8px;&quot;&gt;IdTask&lt;/p&gt;&lt;p style=&quot;margin: 0px; margin-left: 8px;&quot;&gt;Name&lt;/p&gt;&lt;p style=&quot;margin: 0px; margin-left: 8px;&quot;&gt;Description&lt;/p&gt;&lt;p style=&quot;margin: 0px; margin-left: 8px;&quot;&gt;Work&lt;/p&gt;&lt;p style=&quot;margin: 0px; margin-left: 8px;&quot;&gt;IdProject&lt;/p&gt;&lt;p style=&quot;margin: 0px; margin-left: 8px;&quot;&gt;StartDate&lt;/p&gt;&lt;p style=&quot;margin: 0px; margin-left: 8px;&quot;&gt;EndDate&lt;/p&gt;&lt;p style=&quot;margin: 0px; margin-left: 8px;&quot;&gt;CreatedAt&lt;/p&gt;&lt;p style=&quot;margin: 0px; margin-left: 8px;&quot;&gt;UpdatedAt&lt;/p&gt;&lt;p style=&quot;margin: 0px; margin-left: 8px;&quot;&gt;Enabled&lt;/p&gt;" style="verticalAlign=top;align=left;overflow=fill;fontSize=12;fontFamily=Helvetica;html=1;strokeColor=#003366;shadow=1;fillColor=#D4E1F5;fontColor=#003366" parent="1" vertex="1">
          <mxGeometry x="1170" y="140.00000000000009" width="160" height="190" as="geometry"/>
        </mxCell>
        <mxCell id="57" value="" style="endArrow=open;endSize=12;startArrow=diamondThin;startSize=14;startFill=0;edgeStyle=orthogonalEdgeStyle" parent="1" source="27" target="26" edge="1">
          <mxGeometry x="1269.36" y="180" as="geometry">
            <mxPoint x="1269.36" y="180" as="sourcePoint"/>
            <mxPoint x="1429.36" y="180" as="targetPoint"/>
          </mxGeometry>
        </mxCell>
        <mxCell id="58" value="0..n" style="resizable=0;align=left;verticalAlign=top;labelBackgroundColor=#ffffff;fontSize=10;strokeColor=#003366;shadow=1;fillColor=#D4E1F5;fontColor=#003366" parent="57" connectable="0" vertex="1">
          <mxGeometry x="-1" relative="1" as="geometry">
            <mxPoint x="10" as="offset"/>
          </mxGeometry>
        </mxCell>
        <mxCell id="59" value="1" style="resizable=0;align=right;verticalAlign=top;labelBackgroundColor=#ffffff;fontSize=10;strokeColor=#003366;shadow=1;fillColor=#D4E1F5;fontColor=#003366" parent="57" connectable="0" vertex="1">
          <mxGeometry x="1" relative="1" as="geometry">
            <mxPoint x="20" y="-20" as="offset"/>
          </mxGeometry>
        </mxCell>
        <mxCell id="75" value="" style="endArrow=open;endSize=12;startArrow=diamondThin;startSize=14;startFill=0;edgeStyle=orthogonalEdgeStyle" parent="1" source="31" target="26" edge="1">
          <mxGeometry x="1079.36" y="560" as="geometry">
            <mxPoint x="1079.36" y="560" as="sourcePoint"/>
            <mxPoint x="1239.36" y="560" as="targetPoint"/>
          </mxGeometry>
        </mxCell>
        <mxCell id="76" value="0..n" style="resizable=0;align=left;verticalAlign=top;labelBackgroundColor=#ffffff;fontSize=10;strokeColor=#003366;shadow=1;fillColor=#D4E1F5;fontColor=#003366" parent="75" connectable="0" vertex="1">
          <mxGeometry x="-1" relative="1" as="geometry">
            <mxPoint x="10.00000000000009" y="-22.499999999999915" as="offset"/>
          </mxGeometry>
        </mxCell>
        <mxCell id="77" value="1" style="resizable=0;align=right;verticalAlign=top;labelBackgroundColor=#ffffff;fontSize=10;strokeColor=#003366;shadow=1;fillColor=#D4E1F5;fontColor=#003366" parent="75" connectable="0" vertex="1">
          <mxGeometry x="1" relative="1" as="geometry">
            <mxPoint x="20" as="offset"/>
          </mxGeometry>
        </mxCell>
        <mxCell id="78" value="" style="endArrow=open;endSize=12;startArrow=diamondThin;startSize=14;startFill=0;edgeStyle=orthogonalEdgeStyle" parent="1" source="27" target="30" edge="1">
          <mxGeometry x="1309.36" y="540" as="geometry">
            <mxPoint x="1309.36" y="540" as="sourcePoint"/>
            <mxPoint x="1469.36" y="540" as="targetPoint"/>
          </mxGeometry>
        </mxCell>
        <mxCell id="79" value="0..n" style="resizable=0;align=left;verticalAlign=top;labelBackgroundColor=#ffffff;fontSize=10;strokeColor=#003366;shadow=1;fillColor=#D4E1F5;fontColor=#003366" parent="78" connectable="0" vertex="1">
          <mxGeometry x="-1" relative="1" as="geometry">
            <mxPoint x="10" as="offset"/>
          </mxGeometry>
        </mxCell>
        <mxCell id="80" value="1" style="resizable=0;align=right;verticalAlign=top;labelBackgroundColor=#ffffff;fontSize=10;strokeColor=#003366;shadow=1;fillColor=#D4E1F5;fontColor=#003366" parent="78" connectable="0" vertex="1">
          <mxGeometry x="1" relative="1" as="geometry">
            <mxPoint x="-10" as="offset"/>
          </mxGeometry>
        </mxCell>
        <mxCell id="81" value="" style="endArrow=open;endSize=12;startArrow=diamondThin;startSize=14;startFill=0;edgeStyle=orthogonalEdgeStyle" parent="1" source="27" target="35" edge="1">
          <mxGeometry x="1119.36" y="540" as="geometry">
            <mxPoint x="1119.36" y="540" as="sourcePoint"/>
            <mxPoint x="1279.36" y="540" as="targetPoint"/>
          </mxGeometry>
        </mxCell>
        <mxCell id="82" value="0..n" style="resizable=0;align=left;verticalAlign=top;labelBackgroundColor=#ffffff;fontSize=10;strokeColor=#003366;shadow=1;fillColor=#D4E1F5;fontColor=#003366" parent="81" connectable="0" vertex="1">
          <mxGeometry x="-1" relative="1" as="geometry">
            <mxPoint x="10" y="-20" as="offset"/>
          </mxGeometry>
        </mxCell>
        <mxCell id="83" value="1" style="resizable=0;align=right;verticalAlign=top;labelBackgroundColor=#ffffff;fontSize=10;strokeColor=#003366;shadow=1;fillColor=#D4E1F5;fontColor=#003366" parent="81" connectable="0" vertex="1">
          <mxGeometry x="1" relative="1" as="geometry">
            <mxPoint x="20" as="offset"/>
          </mxGeometry>
        </mxCell>
        <mxCell id="84" value="" style="endArrow=open;endSize=12;startArrow=diamondThin;startSize=14;startFill=0;edgeStyle=orthogonalEdgeStyle" parent="1" source="27" edge="1">
          <mxGeometry x="1389.36" y="130" as="geometry">
            <mxPoint x="1389.36" y="130" as="sourcePoint"/>
            <mxPoint x="1040" y="520" as="targetPoint"/>
          </mxGeometry>
        </mxCell>
        <mxCell id="85" value="0..n" style="resizable=0;align=left;verticalAlign=top;labelBackgroundColor=#ffffff;fontSize=10;strokeColor=#003366;shadow=1;fillColor=#D4E1F5;fontColor=#003366" parent="84" connectable="0" vertex="1">
          <mxGeometry x="-1" relative="1" as="geometry">
            <mxPoint x="-30" as="offset"/>
          </mxGeometry>
        </mxCell>
        <mxCell id="86" value="1" style="resizable=0;align=right;verticalAlign=top;labelBackgroundColor=#ffffff;fontSize=10;strokeColor=#003366;shadow=1;fillColor=#D4E1F5;fontColor=#003366" parent="84" connectable="0" vertex="1">
          <mxGeometry x="1" relative="1" as="geometry">
            <mxPoint x="20" y="2.7284841053187846e-13" as="offset"/>
          </mxGeometry>
        </mxCell>
        <mxCell id="90" value="" style="endArrow=open;endSize=12;startArrow=diamondThin;startSize=14;startFill=0;edgeStyle=orthogonalEdgeStyle" parent="1" source="25" target="21" edge="1">
          <mxGeometry x="620" y="340" as="geometry">
            <mxPoint x="620" y="340" as="sourcePoint"/>
            <mxPoint x="780" y="340" as="targetPoint"/>
          </mxGeometry>
        </mxCell>
        <mxCell id="91" value="0..n" style="resizable=0;align=left;verticalAlign=top;labelBackgroundColor=#ffffff;fontSize=10;strokeColor=#003366;shadow=1;fillColor=#D4E1F5;fontColor=#003366" parent="90" connectable="0" vertex="1">
          <mxGeometry x="-1" relative="1" as="geometry">
            <mxPoint x="10" as="offset"/>
          </mxGeometry>
        </mxCell>
        <mxCell id="92" value="1" style="resizable=0;align=right;verticalAlign=top;labelBackgroundColor=#ffffff;fontSize=10;strokeColor=#003366;shadow=1;fillColor=#D4E1F5;fontColor=#003366" parent="90" connectable="0" vertex="1">
          <mxGeometry x="1" relative="1" as="geometry">
            <mxPoint x="20" y="-24.99999999999981" as="offset"/>
          </mxGeometry>
        </mxCell>
        <mxCell id="110" value="" style="endArrow=none;edgeStyle=orthogonalEdgeStyle;" parent="1" target="31" edge="1">
          <mxGeometry x="910" y="972.4999999999998" as="geometry">
            <mxPoint x="1100" y="959.9999999999995" as="sourcePoint"/>
            <mxPoint x="1070" y="972.4999999999998" as="targetPoint"/>
          </mxGeometry>
        </mxCell>
        <mxCell id="111" value="parent" style="resizable=0;align=left;verticalAlign=bottom;labelBackgroundColor=#ffffff;fontSize=10;strokeColor=#003366;shadow=1;fillColor=#D4E1F5;fontColor=#003366" parent="110" connectable="0" vertex="1">
          <mxGeometry x="-1" relative="1" as="geometry">
            <mxPoint x="10" as="offset"/>
          </mxGeometry>
        </mxCell>
        <mxCell id="112" value="child" style="resizable=0;align=right;verticalAlign=bottom;labelBackgroundColor=#ffffff;fontSize=10;strokeColor=#003366;shadow=1;fillColor=#D4E1F5;fontColor=#003366" parent="110" connectable="0" vertex="1">
          <mxGeometry x="1" relative="1" as="geometry">
            <mxPoint x="-10" y="25" as="offset"/>
          </mxGeometry>
        </mxCell>
        <mxCell id="3DZUNBf_pylobnUsO0X3-115" value="&lt;p style=&quot;margin: 0px ; margin-top: 4px ; text-align: center ; text-decoration: underline&quot;&gt;&lt;strong&gt;mst_sc_item&lt;/strong&gt;&lt;/p&gt;&lt;hr&gt;&lt;p style=&quot;margin: 0px ; margin-left: 8px&quot;&gt;sc_item_id&lt;/p&gt;&lt;p style=&quot;margin: 0px ; margin-left: 8px&quot;&gt;cate1_name&lt;/p&gt;&lt;p style=&quot;margin: 0px ; margin-left: 8px&quot;&gt;&lt;span&gt;pack_name(整箱/散件)&lt;/span&gt;&lt;/p&gt;&lt;p style=&quot;margin: 0px ; margin-left: 8px&quot;&gt;&lt;span&gt;abc_class&lt;/span&gt;&lt;br&gt;&lt;/p&gt;&lt;p style=&quot;margin: 0px ; margin-left: 8px&quot;&gt;size_class(大中小件)&lt;/p&gt;&lt;p style=&quot;margin: 0px ; margin-left: 8px&quot;&gt;sale_type(经销/代销)&lt;br&gt;&lt;/p&gt;" style="verticalAlign=top;align=left;overflow=fill;fontSize=12;fontFamily=Helvetica;html=1;strokeColor=#003366;shadow=1;fillColor=#D4E1F5;fontColor=#003366" vertex="1" parent="1">
          <mxGeometry x="170" y="410" width="160" height="130" as="geometry"/>
        </mxCell>
      </root>
    </mxGraphModel>
  </diagram>
  <diagram id="soCKKxfmZ7NhsK_nBnD1" name="模型输入">
    <mxGraphModel dx="1024" dy="566" grid="1" gridSize="10" guides="1" tooltips="1" connect="1" arrows="1" fold="1" page="1" pageScale="1" pageWidth="827" pageHeight="1169" math="0" shadow="0">
      <root>
        <mxCell id="P91cjPpShCtE_ZG0dUON-0"/>
        <mxCell id="P91cjPpShCtE_ZG0dUON-1" parent="P91cjPpShCtE_ZG0dUON-0"/>
      </root>
    </mxGraphModel>
  </diagram>
</mxfile>
